<svg width="40" height="40" viewBox="0 0 40 40" fill="none" xmlns="http://www.w3.org/2000/svg">
<path d="M38.75 19.3749C38.7483 17.7191 38.2778 16.0977 37.393 14.6983C36.5081 13.2988 35.245 12.1785 33.75 11.4671V11.2499C33.7485 9.63928 33.2286 8.07193 32.2673 6.77974C31.3059 5.48755 29.954 4.53917 28.4118 4.07492C26.8696 3.61067 25.2188 3.65522 23.7039 4.20198C22.1889 4.74874 20.8902 5.76865 20 7.11082C19.1097 5.76865 17.811 4.74874 16.296 4.20198C14.7811 3.65522 13.1303 3.61067 11.5881 4.07492C10.0459 4.53917 8.69404 5.48755 7.73266 6.77974C6.77127 8.07193 6.25139 9.63928 6.24995 11.2499V11.4671C4.7536 12.1766 3.48932 13.2962 2.60403 14.6957C1.71873 16.0952 1.24878 17.7173 1.24878 19.3733C1.24878 21.0294 1.71873 22.6514 2.60403 24.0509C3.48932 25.4505 4.7536 26.5701 6.24995 27.2796V27.4999C6.25139 29.1105 6.77127 30.6778 7.73266 31.97C8.69404 33.2622 10.0459 34.2106 11.5881 34.6748C13.1303 35.1391 14.7811 35.0945 16.296 34.5478C17.811 34.001 19.1097 32.9811 20 31.6389C20.8902 32.9811 22.1889 34.001 23.7039 34.5478C25.2188 35.0945 26.8696 35.1391 28.4118 34.6748C29.954 34.2106 31.3059 33.2622 32.2673 31.97C33.2286 30.6778 33.7485 29.1105 33.75 27.4999V27.2796C35.2448 26.5686 36.5077 25.4489 37.3926 24.05C38.2775 22.6511 38.7481 21.0302 38.75 19.3749ZM13.75 32.4999C12.5171 32.4997 11.3277 32.044 10.4103 31.2204C9.49291 30.3967 8.91218 29.2631 8.77964 28.0374C9.18386 28.095 9.59164 28.1243 9.99995 28.1249H11.25C11.5815 28.1249 11.8994 27.9932 12.1338 27.7588C12.3683 27.5243 12.5 27.2064 12.5 26.8749C12.5 26.5434 12.3683 26.2254 12.1338 25.991C11.8994 25.7566 11.5815 25.6249 11.25 25.6249H9.99995C8.52426 25.6266 7.09556 25.1061 5.96679 24.1556C4.83802 23.205 4.082 21.8857 3.83257 20.4313C3.58315 18.9768 3.85641 17.481 4.60398 16.2087C5.35154 14.9364 6.52519 13.9696 7.91714 13.4796C8.16069 13.3933 8.37154 13.2338 8.52067 13.0228C8.66981 12.8118 8.74991 12.5598 8.74995 12.3014V11.2499C8.74995 9.9238 9.27674 8.65203 10.2144 7.71434C11.1521 6.77666 12.4239 6.24988 13.75 6.24988C15.076 6.24988 16.3478 6.77666 17.2855 7.71434C18.2232 8.65203 18.75 9.9238 18.75 11.2499V21.9155C17.3773 20.681 15.5961 19.9985 13.75 19.9999C13.4184 19.9999 13.1005 20.1316 12.8661 20.366C12.6316 20.6004 12.5 20.9184 12.5 21.2499C12.5 21.5814 12.6316 21.8993 12.8661 22.1338C13.1005 22.3682 13.4184 22.4999 13.75 22.4999C15.076 22.4999 16.3478 23.0267 17.2855 23.9643C18.2232 24.902 18.75 26.1738 18.75 27.4999C18.75 28.826 18.2232 30.0977 17.2855 31.0354C16.3478 31.9731 15.076 32.4999 13.75 32.4999ZM30 25.6249H28.75C28.4184 25.6249 28.1005 25.7566 27.8661 25.991C27.6316 26.2254 27.5 26.5434 27.5 26.8749C27.5 27.2064 27.6316 27.5243 27.8661 27.7588C28.1005 27.9932 28.4184 28.1249 28.75 28.1249H30C30.4083 28.1243 30.816 28.095 31.2203 28.0374C31.1164 28.9978 30.7366 29.9076 30.1267 30.6567C29.5168 31.4058 28.7029 31.9622 27.7835 32.2587C26.8641 32.5551 25.8785 32.5788 24.9459 32.327C24.0133 32.0752 23.1735 31.5586 22.5283 30.8397C21.883 30.1208 21.4598 29.2304 21.3099 28.2761C21.1599 27.3218 21.2896 26.3445 21.6833 25.4623C22.0769 24.5801 22.7177 23.8309 23.5281 23.3052C24.3386 22.7794 25.2839 22.4997 26.25 22.4999C26.5815 22.4999 26.8994 22.3682 27.1338 22.1338C27.3683 21.8993 27.5 21.5814 27.5 21.2499C27.5 20.9184 27.3683 20.6004 27.1338 20.366C26.8994 20.1316 26.5815 19.9999 26.25 19.9999C24.4038 19.9985 22.6226 20.681 21.25 21.9155V11.2499C21.25 9.9238 21.7767 8.65203 22.7144 7.71434C23.6521 6.77666 24.9239 6.24988 26.25 6.24988C27.576 6.24988 28.8478 6.77666 29.7855 7.71434C30.7232 8.65203 31.25 9.9238 31.25 11.2499V12.3014C31.25 12.5598 31.3301 12.8118 31.4792 13.0228C31.6284 13.2338 31.8392 13.3933 32.0828 13.4796C33.4747 13.9696 34.6484 14.9364 35.3959 16.2087C36.1435 17.481 36.4168 18.9768 36.1673 20.4313C35.9179 21.8857 35.1619 23.205 34.0331 24.1556C32.9043 25.1061 31.4756 25.6266 30 25.6249ZM32.5 17.4999C32.5 17.8314 32.3683 18.1493 32.1338 18.3838C31.8994 18.6182 31.5815 18.7499 31.25 18.7499H30.625C29.1331 18.7499 27.7024 18.1572 26.6475 17.1024C25.5926 16.0475 25 14.6167 25 13.1249V12.4999C25 12.1684 25.1316 11.8504 25.3661 11.616C25.6005 11.3816 25.9184 11.2499 26.25 11.2499C26.5815 11.2499 26.8994 11.3816 27.1338 11.616C27.3683 11.8504 27.5 12.1684 27.5 12.4999V13.1249C27.5 13.9537 27.8292 14.7485 28.4152 15.3346C29.0013 15.9206 29.7962 16.2499 30.625 16.2499H31.25C31.5815 16.2499 31.8994 16.3816 32.1338 16.616C32.3683 16.8504 32.5 17.1684 32.5 17.4999ZM9.37495 18.7499H8.74995C8.41843 18.7499 8.10049 18.6182 7.86607 18.3838C7.63165 18.1493 7.49995 17.8314 7.49995 17.4999C7.49995 17.1684 7.63165 16.8504 7.86607 16.616C8.10049 16.3816 8.41843 16.2499 8.74995 16.2499H9.37495C10.2038 16.2499 10.9986 15.9206 11.5847 15.3346C12.1707 14.7485 12.5 13.9537 12.5 13.1249V12.4999C12.5 12.1684 12.6316 11.8504 12.8661 11.616C13.1005 11.3816 13.4184 11.2499 13.75 11.2499C14.0815 11.2499 14.3994 11.3816 14.6338 11.616C14.8683 11.8504 15 12.1684 15 12.4999V13.1249C15 14.6167 14.4073 16.0475 13.3524 17.1024C12.2975 18.1572 10.8668 18.7499 9.37495 18.7499Z" fill="#15B715"/>
</svg>
