<svg width="40" height="40" viewBox="0 0 40 40" fill="none" xmlns="http://www.w3.org/2000/svg">
<path d="M26.25 17.4999C26.25 17.8314 26.1183 18.1494 25.8839 18.3838C25.6495 18.6182 25.3315 18.7499 25 18.7499H15C14.6685 18.7499 14.3505 18.6182 14.1161 18.3838C13.8817 18.1494 13.75 17.8314 13.75 17.4999C13.75 17.1684 13.8817 16.8505 14.1161 16.616C14.3505 16.3816 14.6685 16.2499 15 16.2499H25C25.3315 16.2499 25.6495 16.3816 25.8839 16.616C26.1183 16.8505 26.25 17.1684 26.25 17.4999ZM25 21.2499H15C14.6685 21.2499 14.3505 21.3816 14.1161 21.616C13.8817 21.8505 13.75 22.1684 13.75 22.4999C13.75 22.8314 13.8817 23.1494 14.1161 23.3838C14.3505 23.6182 14.6685 23.7499 15 23.7499H25C25.3315 23.7499 25.6495 23.6182 25.8839 23.3838C26.1183 23.1494 26.25 22.8314 26.25 22.4999C26.25 22.1684 26.1183 21.8505 25.8839 21.616C25.6495 21.3816 25.3315 21.2499 25 21.2499ZM36.25 19.9999C36.2506 22.8054 35.5249 25.5633 34.1434 28.0052C32.7619 30.447 30.7718 32.4895 28.3667 33.934C25.9616 35.3785 23.2236 36.1757 20.419 36.2481C17.6144 36.3204 14.8388 35.6654 12.3625 34.3468L7.04219 36.1202C6.6017 36.2671 6.129 36.2885 5.67707 36.1818C5.22515 36.0752 4.81185 35.8447 4.48352 35.5164C4.15518 35.1881 3.92477 34.7748 3.81812 34.3229C3.71147 33.8709 3.73279 33.3982 3.87969 32.9577L5.65312 27.6374C4.49398 25.4581 3.84656 23.0433 3.76 20.5764C3.67343 18.1095 4.15001 15.6553 5.15355 13.4001C6.15708 11.1449 7.66121 9.14797 9.55175 7.56085C11.4423 5.97373 13.6695 4.83817 16.0645 4.24036C18.4594 3.64254 20.9591 3.59819 23.3737 4.11066C25.7883 4.62313 28.0545 5.67896 30.0001 7.19801C31.9458 8.71705 33.5198 10.6594 34.6027 12.8776C35.6856 15.0958 36.249 17.5315 36.25 19.9999ZM33.75 19.9999C33.7494 17.8907 33.2636 15.81 32.3301 13.9186C31.3967 12.0272 30.0406 10.3759 28.3669 9.09248C26.6931 7.80904 24.7466 6.92785 22.6778 6.51709C20.609 6.10634 18.4734 6.17702 16.4363 6.72367C14.3992 7.27033 12.5151 8.2783 10.9299 9.6696C9.34471 11.0609 8.10081 12.7982 7.29447 14.7472C6.48813 16.6962 6.14097 18.8045 6.27983 20.9091C6.4187 23.0137 7.03988 25.0582 8.09531 26.8843C8.18389 27.0376 8.2389 27.208 8.25667 27.3842C8.27445 27.5603 8.2546 27.7383 8.19844 27.9062L6.25 33.7499L12.0938 31.8015C12.221 31.7581 12.3546 31.7359 12.4891 31.7359C12.7086 31.7363 12.9242 31.7945 13.1141 31.9046C15.2044 33.114 17.5763 33.7516 19.9913 33.7531C22.4063 33.7546 24.7791 33.1201 26.8709 31.9133C28.9627 30.7065 30.6999 28.9701 31.9075 26.8788C33.1151 24.7874 33.7506 22.4149 33.75 19.9999Z" fill="#15B715"/>
</svg>
