<svg width="50" height="50" viewBox="0 0 50 50" fill="none" xmlns="http://www.w3.org/2000/svg">
<path d="M26.971 49.0597C26.7087 49.5008 26.3005 49.8072 25.8363 49.9117C25.3721 50.0161 24.8898 49.91 24.4955 49.6166C17.7682 44.6092 9.86563 41.9445 1.78571 41.9591C1.31211 41.9591 0.85791 41.7486 0.523023 41.3739C0.188137 40.9992 0 40.491 0 39.961C0 39.4311 0.188137 38.9229 0.523023 38.5482C0.85791 38.1735 1.31211 37.963 1.78571 37.963C10.5695 37.948 19.1603 40.8456 26.4732 46.2899C26.8674 46.5834 27.1413 47.04 27.2347 47.5595C27.328 48.0789 27.2332 48.6185 26.971 49.0597ZM1.78571 29.9708C1.31211 29.9708 0.85791 30.1813 0.523023 30.556C0.188137 30.9307 0 31.4389 0 31.9688C0 32.4988 0.188137 33.007 0.523023 33.3817C0.85791 33.7564 1.31211 33.9669 1.78571 33.9669C14.4081 33.9346 26.5328 39.4726 35.529 49.3794C35.695 49.5703 35.8934 49.7222 36.1126 49.8261C36.3318 49.9301 36.5674 49.9839 36.8054 49.9844C37.0435 49.985 37.2793 49.9323 37.4988 49.8294C37.7184 49.7266 37.9174 49.5756 38.0841 49.3854C38.2508 49.1952 38.3818 48.9697 38.4695 48.722C38.5571 48.4744 38.5996 48.2096 38.5945 47.9433C38.5894 47.677 38.5367 47.4145 38.4396 47.1713C38.3425 46.9281 38.2029 46.7091 38.029 46.5271C28.367 35.8848 15.3437 29.9356 1.78571 29.9708ZM48.2143 33.9669C44.5643 33.9642 40.9258 34.4242 37.3683 35.3381C38.5945 36.3787 39.785 37.4743 40.9397 38.6249C43.3446 38.1841 45.7774 37.9628 48.2143 37.963C48.6879 37.963 49.1421 38.1735 49.477 38.5482C49.8119 38.9229 50 39.4311 50 39.961C50 40.491 49.8119 40.9992 49.477 41.3739C49.1421 41.7486 48.6879 41.9591 48.2143 41.9591C46.875 41.9591 45.5513 42.0315 44.2299 42.1739C45.468 43.6175 46.654 45.1277 47.7879 46.7045C47.9433 46.908 48.0605 47.1444 48.1326 47.3996C48.2047 47.6548 48.2303 47.9236 48.2077 48.19C48.1852 48.4565 48.1151 48.7151 48.0015 48.9507C47.8879 49.1862 47.7332 49.3938 47.5466 49.5612C47.3599 49.7285 47.1451 49.8522 46.9149 49.9249C46.6847 49.9976 46.4438 50.0178 46.2065 49.9843C45.9691 49.9508 45.7403 49.8643 45.5334 49.7299C45.3265 49.5955 45.1459 49.416 45.0022 49.202C39.8264 41.9397 33.2516 36.079 25.7685 32.0571C18.2855 28.0352 10.0873 25.956 1.78571 25.9747C1.31211 25.9747 0.85791 25.7642 0.523023 25.3895C0.188137 25.0148 0 24.5065 0 23.9766C0 23.4467 0.188137 22.9385 0.523023 22.5638C0.85791 22.1891 1.31211 21.9786 1.78571 21.9786C5.37928 21.9793 8.96539 22.3446 12.5 23.07V13.9864C12.5 13.6762 12.5645 13.3703 12.6885 13.0928C12.8125 12.8154 12.9925 12.574 13.2143 12.3879L27.5 0.399611C27.8091 0.140219 28.1851 0 28.5714 0C28.9578 0 29.3338 0.140219 29.6429 0.399611L43.9286 12.3879C44.1503 12.574 44.3304 12.8154 44.4543 13.0928C44.5783 13.3703 44.6429 13.6762 44.6429 13.9864V22.101C45.8281 22.0235 47.0179 21.9786 48.2143 21.9786C48.6879 21.9786 49.1421 22.1891 49.477 22.5638C49.8119 22.9385 50 23.4467 50 23.9766C50 24.5065 49.8119 25.0148 49.477 25.3895C49.1421 25.7642 48.6879 25.9747 48.2143 25.9747C41.8017 25.961 35.4364 27.2027 29.4062 29.6436C30.811 30.4761 32.1845 31.3736 33.5268 32.336C38.2959 30.7634 43.2424 29.9669 48.2143 29.9708C48.6879 29.9708 49.1421 30.1813 49.477 30.556C49.8119 30.9307 50 31.4389 50 31.9688C50 32.4988 49.8119 33.007 49.477 33.3817C49.1421 33.7564 48.6879 33.9669 48.2143 33.9669ZM23.2143 15.9844H33.9286C34.4022 15.9844 34.8564 16.1949 35.1913 16.5696C35.5261 16.9443 35.7143 17.4526 35.7143 17.9825V23.4621C37.4821 23.0359 39.2679 22.7029 41.0714 22.4631V14.9854L28.5714 4.49562L16.0714 14.9854V23.9292C17.8854 24.4287 19.6711 25.0264 21.4286 25.7224V17.9825C21.4286 17.4526 21.6167 16.9443 21.9516 16.5696C22.2865 16.1949 22.7407 15.9844 23.2143 15.9844ZM25.0156 27.2909C27.3344 26.1769 29.7151 25.2317 32.1429 24.4612V19.9805H25V27.2834L25.0156 27.2909Z" fill="#15B715"/>
</svg>
