<svg width="68" height="68" viewBox="0 0 68 68" fill="none" xmlns="http://www.w3.org/2000/svg">
<path d="M47.252 16.1441C44.71 13.5765 41.6865 11.5355 38.3546 10.138C35.0227 8.74055 31.4479 8.01401 27.8348 8H27.625C20.2984 8 13.2719 10.9105 8.09118 16.0912C2.91048 21.2719 0 28.2984 0 35.625V50.5C0 52.1908 0.67165 53.8123 1.86719 55.0078C3.06274 56.2034 4.68425 56.875 6.375 56.875H10.625C12.3158 56.875 13.9373 56.2034 15.1328 55.0078C16.3284 53.8123 17 52.1908 17 50.5V39.875C17 38.1842 16.3284 36.5627 15.1328 35.3672C13.9373 34.1716 12.3158 33.5 10.625 33.5H4.34563C4.75544 29.0692 6.41972 24.847 9.14341 21.3283C11.8671 17.8096 15.5373 15.1401 19.724 13.6328C23.9106 12.1254 28.4402 11.8427 32.7817 12.8177C37.1233 13.7926 41.0971 15.985 44.2372 19.1377C48.0752 22.9953 50.4359 28.0788 50.907 33.5H44.625C42.9342 33.5 41.3127 34.1716 40.1172 35.3672C38.9217 36.5627 38.25 38.1842 38.25 39.875V50.5C38.25 52.1908 38.9217 53.8123 40.1172 55.0078C41.3127 56.2034 42.9342 56.875 44.625 56.875H51C51 58.5658 50.3284 60.1873 49.1328 61.3828C47.9373 62.5784 46.3158 63.25 44.625 63.25H29.75C29.1864 63.25 28.6459 63.4739 28.2474 63.8724C27.8489 64.2709 27.625 64.8114 27.625 65.375C27.625 65.9386 27.8489 66.4791 28.2474 66.8776C28.6459 67.2761 29.1864 67.5 29.75 67.5H44.625C47.4429 67.5 50.1454 66.3806 52.138 64.388C54.1306 62.3954 55.25 59.6929 55.25 56.875V35.625C55.2638 32.0114 54.5645 28.4305 53.1921 25.0876C51.8196 21.7447 49.8011 18.7055 47.252 16.1441ZM10.625 37.75C11.1886 37.75 11.7291 37.9739 12.1276 38.3724C12.5261 38.7709 12.75 39.3114 12.75 39.875V50.5C12.75 51.0636 12.5261 51.6041 12.1276 52.0026C11.7291 52.4011 11.1886 52.625 10.625 52.625H6.375C5.81142 52.625 5.27091 52.4011 4.8724 52.0026C4.47388 51.6041 4.25 51.0636 4.25 50.5V37.75H10.625ZM44.625 52.625C44.0614 52.625 43.5209 52.4011 43.1224 52.0026C42.7239 51.6041 42.5 51.0636 42.5 50.5V39.875C42.5 39.3114 42.7239 38.7709 43.1224 38.3724C43.5209 37.9739 44.0614 37.75 44.625 37.75H51V52.625H44.625Z" fill="#15B715"/>
</svg>
