<svg width="40" height="40" viewBox="0 0 40 40" fill="none" xmlns="http://www.w3.org/2000/svg">
<path d="M36.0781 11.5C35.5892 11.2604 35.035 11.1885 34.5012 11.2956C33.9673 11.4026 33.4837 11.6826 33.125 12.0922L27.864 17.7625L22.2703 5.21717C22.27 5.21196 22.27 5.20675 22.2703 5.20154C22.0703 4.76771 21.7501 4.40027 21.3478 4.14272C20.9454 3.88517 20.4777 3.74829 20 3.74829C19.5222 3.74829 19.0545 3.88517 18.6522 4.14272C18.2498 4.40027 17.9297 4.76771 17.7297 5.20154C17.7299 5.20675 17.7299 5.21196 17.7297 5.21717L12.1359 17.7625L6.87496 12.0922C6.51397 11.6825 6.02879 11.4023 5.49354 11.2943C4.95829 11.1864 4.40242 11.2566 3.91086 11.4943C3.41929 11.7321 3.01908 12.1242 2.77136 12.6108C2.52364 13.0974 2.44204 13.6517 2.53903 14.189C2.53903 14.2062 2.53903 14.2219 2.54996 14.239L6.09371 30.4687C6.2028 31.0402 6.5078 31.5558 6.95616 31.9266C7.40452 32.2973 7.96815 32.5001 8.54996 32.5H31.4515C32.0331 32.4998 32.5963 32.2968 33.0444 31.9261C33.4924 31.5553 33.7972 31.04 33.9062 30.4687L37.45 14.239C37.45 14.2219 37.45 14.2062 37.4609 14.189C37.5597 13.651 37.4777 13.0954 37.2275 12.609C36.9774 12.1225 36.5732 11.7326 36.0781 11.5ZM31.4609 29.95L31.4515 30H8.5484L8.53903 29.95L4.99996 13.75L5.02184 13.775L11.5843 20.8437C11.7249 20.9956 11.9009 21.1102 12.0966 21.1772C12.2923 21.2443 12.5016 21.2617 12.7057 21.228C12.9099 21.1942 13.1024 21.1103 13.2661 20.9838C13.4298 20.8573 13.5596 20.6921 13.6437 20.5031L20 6.24998L26.3578 20.5078C26.4419 20.6968 26.5717 20.862 26.7354 20.9885C26.8991 21.115 27.0916 21.1989 27.2957 21.2327C27.4999 21.2664 27.7092 21.249 27.9049 21.1819C28.1006 21.1149 28.2766 21.0003 28.4172 20.8484L34.9797 13.7797L35 13.75L31.4609 29.95Z" fill="#15B715"/>
</svg>
