<svg width="40" height="40" viewBox="0 0 40 40" fill="none" xmlns="http://www.w3.org/2000/svg">
<path d="M30.0781 26.7922C31.6588 25.4644 32.9216 23.799 33.7734 21.9185C34.6252 20.038 35.0443 17.9905 35 15.9266C34.8437 8.78439 29.1234 2.89532 21.9937 2.52032C20.1542 2.4202 18.3132 2.69077 16.5802 3.31597C14.8473 3.94117 13.2576 4.90824 11.9057 6.15977C10.5537 7.41129 9.46708 8.92174 8.71025 10.6014C7.95342 12.2811 7.54185 14.0957 7.49998 15.9375L3.99217 22.6844C3.9781 22.7125 3.96404 22.7406 3.95154 22.7688C3.70006 23.3549 3.68213 24.0151 3.90144 24.614C4.12075 25.213 4.5607 25.7054 5.13123 25.9906L5.17029 26.0078L8.74998 27.6469V32.5C8.74998 33.163 9.01337 33.7989 9.48221 34.2678C9.95105 34.7366 10.5869 35 11.25 35H18.75C19.0815 35 19.3994 34.8683 19.6339 34.6339C19.8683 34.3995 20 34.0815 20 33.75C20 33.4185 19.8683 33.1005 19.6339 32.8661C19.3994 32.6317 19.0815 32.5 18.75 32.5H11.25V26.8453C11.2502 26.6057 11.1815 26.3711 11.0521 26.1695C10.9227 25.9678 10.7381 25.8076 10.5203 25.7078L6.24998 23.75L9.85467 16.8219C9.94862 16.6458 9.99848 16.4496 9.99998 16.25C9.99962 13.7005 10.8652 11.2265 12.4549 9.23342C14.0447 7.2403 16.2643 5.84625 18.75 5.2797V7.71564C17.916 8.01051 17.213 8.59072 16.7654 9.35374C16.3178 10.1167 16.1544 11.0134 16.304 11.8853C16.4536 12.7572 16.9066 13.5481 17.5829 14.1183C18.2592 14.6884 19.1154 15.0012 20 15.0012C20.8846 15.0012 21.7407 14.6884 22.4171 14.1183C23.0934 13.5481 23.5464 12.7572 23.696 11.8853C23.8456 11.0134 23.6821 10.1167 23.2345 9.35374C22.7869 8.59072 22.084 8.01051 21.25 7.71564V5.00001C21.4531 5.00001 21.6562 5.00001 21.8594 5.01564C24.076 5.14261 26.2061 5.92034 27.9831 7.25155C29.7601 8.58277 31.1051 10.4084 31.85 12.5H28.75C28.5666 12.4999 28.3855 12.5402 28.2194 12.618C28.0533 12.6958 27.9064 12.8091 27.789 12.95L23.8031 17.7344C22.9718 17.4246 22.0577 17.4188 21.2226 17.718C20.3874 18.0172 19.685 18.6021 19.2395 19.3693C18.794 20.1365 18.6341 21.0365 18.7882 21.9101C18.9423 22.7838 19.4004 23.5748 20.0815 24.1433C20.7625 24.7117 21.6227 25.021 22.5098 25.0165C23.3969 25.0119 24.2539 24.6938 24.929 24.1183C25.6042 23.5429 26.0541 22.7472 26.1992 21.872C26.3443 20.9968 26.1752 20.0985 25.7219 19.3359L29.3359 15H32.4281C32.4656 15.325 32.4885 15.6531 32.4969 15.9844C32.5358 17.7748 32.1484 19.5487 31.3664 21.1598C30.5845 22.7709 29.4306 24.1729 28 25.25C27.8237 25.3822 27.6855 25.5586 27.5993 25.7613C27.5131 25.9641 27.4821 26.1861 27.5094 26.4047L28.7594 36.4047C28.7974 36.7066 28.9442 36.9842 29.1723 37.1856C29.4004 37.3869 29.6942 37.4982 29.9984 37.4984C30.0506 37.4984 30.1028 37.4953 30.1547 37.4891C30.3176 37.4688 30.4749 37.4166 30.6177 37.3355C30.7605 37.2544 30.8858 37.146 30.9867 37.0164C31.0875 36.8868 31.1619 36.7386 31.2054 36.5803C31.249 36.422 31.261 36.2567 31.2406 36.0938L30.0781 26.7922ZM20 12.5C19.7528 12.5 19.5111 12.4267 19.3055 12.2893C19.1 12.152 18.9397 11.9568 18.8451 11.7284C18.7505 11.5 18.7258 11.2486 18.774 11.0061C18.8222 10.7637 18.9413 10.5409 19.1161 10.3661C19.2909 10.1913 19.5136 10.0723 19.7561 10.024C19.9986 9.9758 20.2499 10.0006 20.4783 10.0952C20.7067 10.1898 20.902 10.35 21.0393 10.5555C21.1767 10.7611 21.25 11.0028 21.25 11.25C21.25 11.5815 21.1183 11.8995 20.8839 12.1339C20.6494 12.3683 20.3315 12.5 20 12.5ZM22.5 22.5C22.2528 22.5 22.0111 22.4267 21.8055 22.2893C21.6 22.152 21.4397 21.9568 21.3451 21.7284C21.2505 21.5 21.2258 21.2486 21.274 21.0061C21.3222 20.7637 21.4413 20.5409 21.6161 20.3661C21.7909 20.1913 22.0136 20.0723 22.2561 20.024C22.4986 19.9758 22.7499 20.0005 22.9783 20.0952C23.2067 20.1898 23.402 20.35 23.5393 20.5555C23.6767 20.7611 23.75 21.0028 23.75 21.25C23.75 21.5815 23.6183 21.8995 23.3839 22.1339C23.1494 22.3683 22.8315 22.5 22.5 22.5Z" fill="#15B715"/>
</svg>
