<svg width="39" height="31" viewBox="0 0 39 31" fill="none" xmlns="http://www.w3.org/2000/svg">
<g clip-path="url(#clip0_114_698)">
<g clip-path="url(#clip1_114_698)">
<path fill-rule="evenodd" clip-rule="evenodd" d="M17.1605 19.2968V4.28818C17.1605 1.91988 15.2407 0 12.8724 0H4.29599C1.9277 0 0.0078125 1.91988 0.0078125 4.28818V12.8646C0.0078125 15.2329 1.9277 17.1527 4.29599 17.1527H10.7283V19.2968C10.768 21.3736 9.31366 23.1804 7.27628 23.585C6.80095 23.6918 6.45745 24.1059 6.44009 24.5927V28.881C6.42415 29.2136 6.55785 29.5362 6.80459 29.76C7.03265 29.9632 7.33789 30.0572 7.64078 30.0173C13.0883 29.4034 17.1951 24.7787 17.1605 19.2968ZM25.7374 0H34.3138C36.682 0 38.6019 1.91988 38.6019 4.28818V19.2968C38.6254 24.7705 34.5215 29.3829 29.0821 29.9958C28.7793 30.0358 28.4741 29.9418 28.246 29.7385C28.0164 29.5295 27.8842 29.2343 27.8815 28.9238V24.6356C27.8793 24.1326 28.227 23.6957 28.7177 23.585C30.7551 23.1804 32.2095 21.3736 32.1696 19.2968V17.1527H25.7374C23.3691 17.1527 21.4492 15.2329 21.4492 12.8646V4.28818C21.4492 1.91988 23.3691 0 25.7374 0Z" fill="#15B715"/>
</g>
</g>
<defs>
<clipPath id="clip0_114_698">
<rect width="38.6094" height="30.875" fill="white"/>
</clipPath>
<clipPath id="clip1_114_698">
<rect width="38.6094" height="30.875" fill="white"/>
</clipPath>
</defs>
</svg>
