<svg width="40" height="40" viewBox="0 0 40 40" fill="none" xmlns="http://www.w3.org/2000/svg">
<path d="M27.5 36.2501C27.5 36.5816 27.3683 36.8996 27.1338 37.134C26.8994 37.3684 26.5815 37.5001 26.25 37.5001H13.75C13.4184 37.5001 13.1005 37.3684 12.8661 37.134C12.6317 36.8996 12.5 36.5816 12.5 36.2501C12.5 35.9186 12.6317 35.6006 12.8661 35.3662C13.1005 35.1318 13.4184 35.0001 13.75 35.0001H26.25C26.5815 35.0001 26.8994 35.1318 27.1338 35.3662C27.3683 35.6006 27.5 35.9186 27.5 36.2501ZM33.75 16.2501C33.7554 18.3339 33.2846 20.3914 32.3737 22.2656C31.4627 24.1397 30.1356 25.781 28.4937 27.0641C28.1867 27.2995 27.9376 27.6019 27.7653 27.9482C27.5931 28.2946 27.5023 28.6758 27.5 29.0626V30.0001C27.5 30.6631 27.2366 31.299 26.7677 31.7679C26.2989 32.2367 25.663 32.5001 25 32.5001H15C14.3369 32.5001 13.701 32.2367 13.2322 31.7679C12.7634 31.299 12.5 30.6631 12.5 30.0001V29.0626C12.4997 28.6804 12.4118 28.3033 12.2431 27.9604C12.0743 27.6175 11.8292 27.3178 11.5265 27.0845C9.88892 25.8091 8.56286 24.1779 7.64871 22.3144C6.73455 20.4509 6.25623 18.4039 6.24996 16.3282C6.20934 8.87977 12.2281 2.67977 19.6687 2.50008C21.5021 2.4559 23.3257 2.77892 25.0324 3.45011C26.739 4.12131 28.2942 5.12712 29.6063 6.40835C30.9184 7.68958 31.9609 9.22035 32.6725 10.9105C33.3842 12.6007 33.7505 14.4162 33.75 16.2501ZM31.25 16.2501C31.2504 14.7496 30.9507 13.2641 30.3684 11.8812C29.7861 10.4982 28.933 9.24574 27.8594 8.19745C26.7858 7.14916 25.5133 6.32623 24.1168 5.77713C22.7204 5.22802 21.2282 4.96382 19.7281 5.00008C13.6343 5.14383 8.71715 10.2173 8.74996 16.311C8.75555 18.0088 9.14729 19.6831 9.89551 21.2072C10.6437 22.7313 11.7288 24.0651 13.0687 25.1079C13.671 25.5761 14.1581 26.1759 14.4929 26.8613C14.8276 27.5468 15.0011 28.2998 15 29.0626V30.0001H18.75V23.0173L14.1156 18.3845C13.881 18.1499 13.7493 17.8318 13.7493 17.5001C13.7493 17.1684 13.881 16.8503 14.1156 16.6157C14.3501 16.3812 14.6683 16.2494 15 16.2494C15.3317 16.2494 15.6498 16.3812 15.8843 16.6157L20 20.7329L24.1156 16.6157C24.2317 16.4996 24.3696 16.4074 24.5213 16.3446C24.6731 16.2817 24.8357 16.2494 25 16.2494C25.1642 16.2494 25.3268 16.2817 25.4786 16.3446C25.6303 16.4074 25.7682 16.4996 25.8843 16.6157C26.0005 16.7318 26.0926 16.8697 26.1555 17.0215C26.2183 17.1732 26.2507 17.3358 26.2507 17.5001C26.2507 17.6643 26.2183 17.827 26.1555 17.9787C26.0926 18.1304 26.0005 18.2683 25.8843 18.3845L21.25 23.0173V30.0001H25V29.0626C25.0013 28.2975 25.1776 27.5429 25.5153 26.8564C25.853 26.1699 26.3432 25.5697 26.9484 25.1016C28.2923 24.0514 29.3785 22.7079 30.124 21.1739C30.8695 19.6398 31.2546 17.9557 31.25 16.2501Z" fill="#15B715"/>
</svg>
