<svg width="40" height="40" viewBox="0 0 40 40" fill="none" xmlns="http://www.w3.org/2000/svg">
<path d="M34.4173 24.7719C34.2391 24.6595 34.0353 24.594 33.825 24.5814C33.6146 24.5689 33.4045 24.6097 33.2142 24.7001C32.7379 24.9253 32.2123 25.0265 31.6864 24.9942C31.1605 24.9619 30.6514 24.7971 30.2062 24.5152C29.7611 24.2333 29.3944 23.8435 29.1404 23.3819C28.8863 22.9203 28.7531 22.402 28.7531 21.8751C28.7531 21.3482 28.8863 20.8299 29.1404 20.3683C29.3944 19.9067 29.7611 19.5168 30.2062 19.2349C30.6514 18.953 31.1605 18.7883 31.6864 18.756C32.2123 18.7236 32.7379 18.8248 33.2142 19.0501C33.4047 19.1405 33.6151 19.1812 33.8256 19.1685C34.0362 19.1558 34.2401 19.0899 34.4183 18.9772C34.5966 18.8644 34.7434 18.7084 34.8451 18.5236C34.9468 18.3388 35.0002 18.1313 35.0001 17.9204V11.2501C35.0001 10.587 34.7367 9.95114 34.2679 9.4823C33.799 9.01346 33.1631 8.75007 32.5001 8.75007H26.8407C26.864 8.54255 26.8755 8.33388 26.8751 8.12507C26.8739 7.35682 26.7159 6.59691 26.4107 5.89189C26.1055 5.18688 25.6595 4.55163 25.1001 4.02507C24.3255 3.29759 23.3607 2.80439 22.3174 2.6026C21.2741 2.40081 20.195 2.49867 19.205 2.88485C18.215 3.27103 17.3547 3.92974 16.7236 4.78469C16.0925 5.63965 15.7165 6.65587 15.6392 7.71569C15.6151 8.06044 15.6225 8.40665 15.661 8.75007H10.0001C9.33705 8.75007 8.70116 9.01346 8.23232 9.4823C7.76348 9.95114 7.50009 10.587 7.50009 11.2501V16.2844C7.29257 16.2612 7.08391 16.2497 6.87509 16.2501C6.10686 16.2513 5.34697 16.4094 4.64197 16.7146C3.93697 17.0198 3.30171 17.4657 2.77509 18.0251C2.2447 18.5853 1.83629 19.2495 1.57568 19.9757C1.31508 20.7018 1.20793 21.4741 1.26103 22.2438C1.3506 23.5991 1.92646 24.8765 2.8827 25.841C3.83894 26.8056 5.11127 27.3925 6.46572 27.4938C6.81044 27.5186 7.15672 27.5113 7.50009 27.4719V32.5001C7.50009 33.1631 7.76348 33.799 8.23232 34.2678C8.70116 34.7367 9.33705 35.0001 10.0001 35.0001H32.5001C33.1631 35.0001 33.799 34.7367 34.2679 34.2678C34.7367 33.799 35.0001 33.1631 35.0001 32.5001V25.8298C35.0002 25.6186 34.9468 25.4108 34.8449 25.2258C34.743 25.0408 34.5959 24.8847 34.4173 24.7719ZM32.5001 32.5001H10.0001V25.8298C10.0002 25.6188 9.94685 25.4113 9.84513 25.2265C9.7434 25.0417 9.59657 24.8857 9.41831 24.7729C9.24005 24.6602 9.03615 24.5944 8.82561 24.5816C8.61506 24.5689 8.40471 24.6096 8.21415 24.7001C7.73785 24.9253 7.21232 25.0265 6.68643 24.9942C6.16054 24.9619 5.65135 24.7971 5.20621 24.5152C4.76108 24.2333 4.39444 23.8435 4.14039 23.3819C3.88633 22.9203 3.75311 22.402 3.75311 21.8751C3.75311 21.3482 3.88633 20.8299 4.14039 20.3683C4.39444 19.9067 4.76108 19.5168 5.20621 19.2349C5.65135 18.953 6.16054 18.7883 6.68643 18.756C7.21232 18.7236 7.73785 18.8248 8.21415 19.0501C8.40471 19.1405 8.61506 19.1812 8.82561 19.1685C9.03615 19.1558 9.24005 19.0899 9.41831 18.9772C9.59657 18.8644 9.7434 18.7084 9.84513 18.5236C9.94685 18.3388 10.0002 18.1313 10.0001 17.9204V11.2501H17.2954C17.5063 11.2501 17.7139 11.1968 17.8986 11.0951C18.0834 10.9934 18.2395 10.8466 18.3522 10.6683C18.465 10.49 18.5308 10.2861 18.5435 10.0756C18.5563 9.86504 18.5155 9.65469 18.4251 9.46413C18.1998 8.98783 18.0987 8.4623 18.131 7.93641C18.1633 7.41051 18.3281 6.90133 18.6099 6.45619C18.8918 6.01105 19.2817 5.64442 19.7433 5.39036C20.2049 5.13631 20.7232 5.00309 21.2501 5.00309C21.777 5.00309 22.2953 5.13631 22.7569 5.39036C23.2185 5.64442 23.6084 6.01105 23.8902 6.45619C24.1721 6.90133 24.3369 7.41051 24.3692 7.93641C24.4015 8.4623 24.3004 8.98783 24.0751 9.46413C23.9847 9.65469 23.9439 9.86504 23.9567 10.0756C23.9694 10.2861 24.0352 10.49 24.148 10.6683C24.2607 10.8466 24.4168 10.9934 24.6015 11.0951C24.7863 11.1968 24.9938 11.2501 25.2048 11.2501H32.5001V16.286C32.1567 16.2467 31.8104 16.2393 31.4657 16.2641C30.0109 16.3671 28.653 17.0312 27.6783 18.1162C26.7037 19.2012 26.1887 20.6224 26.2418 22.0799C26.2949 23.5374 26.912 24.9173 27.963 25.9285C29.014 26.9397 30.4166 27.5032 31.8751 27.5001C32.0839 27.5004 32.2926 27.489 32.5001 27.4657V32.5001Z" fill="#15B715"/>
</svg>
